2.5Hzhigh3min_grf.mot
version=1
nRows=20
nColumns 19
inDegrees=yes
endheader
time	1_ground_force_vx	1_ground_force_vy	1_ground_force_vz	1_ground_force_px	1_ground_force_py	1_ground_force_pz	1_ground_torque_x	1_ground_torque_y	1_ground_torque_z	2_ground_force_vx	2_ground_force_vy	2_ground_force_vz	2_ground_force_px	2_ground_force_py	2_ground_force_pz	2_ground_torque_x	2_ground_torque_y	2_ground_torque_z
            3.751500	           18.475325	           85.241315	            6.831299	           -0.182391	            0.006125	           -0.380367	            0.198519	            0.915927	            0.073403	           -0.332857	           92.972316	            6.667109	           -0.184782	            0.005638	           -0.647643	            0.010969	           -3.063826	           -0.219709
            3.752000	           17.879370	           82.718267	            6.638533	           -0.181067	            0.006124	           -0.379969	            0.180090	            0.833180	            0.066867	           -0.363818	           88.553090	            6.510575	           -0.183569	            0.005637	           -0.646189	            0.012897	           -3.139239	           -0.230802
            3.752500	           17.559225	           79.833561	            6.718674	           -0.180829	            0.006128	           -0.380970	            0.137026	            0.622992	            0.052430	           -0.723913	           84.499804	            6.683991	           -0.180508	            0.005641	           -0.644160	            0.025472	           -2.973210	           -0.235183
            3.753000	           17.147489	           76.408040	            6.796723	           -0.180595	            0.006133	           -0.382171	            0.115547	            0.514869	            0.045799	           -0.994564	           81.553922	            6.251245	           -0.179389	            0.005650	           -0.645699	            0.036729	           -3.011781	           -0.230858
            3.753500	           17.056312	           74.244638	            6.833531	           -0.182091	            0.006127	           -0.380689	            0.103868	            0.452130	            0.041614	           -1.118354	           76.948527	            6.563375	           -0.177634	            0.005650	           -0.643886	            0.043364	           -2.983690	           -0.254496
            3.754000	           16.735487	           70.099645	            6.541414	           -0.178712	            0.006134	           -0.382209	            0.154599	            0.647566	            0.060428	           -1.109632	           74.553937	            6.742546	           -0.175396	            0.005662	           -0.644830	            0.044754	           -3.006940	           -0.271943
            3.754500	           17.010598	           67.937100	            6.393888	           -0.178350	            0.006129	           -0.381085	            0.192536	            0.768952	            0.072370	           -1.658517	           70.868773	            6.776572	           -0.172308	            0.005667	           -0.643156	            0.068842	           -2.941650	           -0.281285
            3.755000	           16.323496	           64.331850	            6.334280	           -0.177926	            0.006138	           -0.383194	            0.212381	            0.837005	            0.082414	           -2.026650	           69.025769	            6.817089	           -0.173098	            0.005672	           -0.645454	            0.085015	           -2.895530	           -0.285967
            3.755500	           16.095067	           62.528362	            6.510543	           -0.178496	            0.006123	           -0.379612	            0.189993	            0.738112	            0.076853	           -1.923125	           66.265047	            6.478696	           -0.171128	            0.005684	           -0.646662	            0.086456	           -2.979024	           -0.291257
            3.756000	           15.728458	           59.284296	            6.314116	           -0.176668	            0.006134	           -0.382094	            0.135516	            0.510791	            0.054402	           -2.329467	           62.027946	            6.510691	           -0.167374	            0.005683	           -0.642623	            0.108308	           -2.883962	           -0.302712
            3.756500	           15.499620	           57.841930	            6.354357	           -0.176629	            0.006123	           -0.379656	            0.119715	            0.446754	            0.049079	           -2.648755	           59.632666	            6.549217	           -0.167070	            0.005681	           -0.641869	            0.127948	           -2.880545	           -0.316359
            3.757000	           15.178839	           55.318738	            6.206764	           -0.176356	            0.006125	           -0.379938	            0.123786	            0.451134	            0.050617	           -3.059688	           56.684101	            6.726596	           -0.162462	            0.005690	           -0.639798	            0.149532	           -2.770239	           -0.328739
            3.757500	           14.858755	           53.334967	            6.382482	           -0.178622	            0.006117	           -0.378293	            0.150504	            0.540228	            0.064648	           -3.188837	           53.552235	            6.950126	           -0.160371	            0.005696	           -0.639093	            0.162510	           -2.729140	           -0.354194
            3.758000	           14.812852	           51.172557	            6.189896	           -0.177018	            0.006113	           -0.377317	            0.193219	            0.667494	            0.080741	           -3.558339	           52.077862	            6.898101	           -0.159424	            0.005700	           -0.639331	            0.182629	           -2.672851	           -0.354039
            3.758500	           14.492022	           48.289030	            5.994902	           -0.174772	            0.006125	           -0.379955	            0.200840	            0.669221	            0.083081	           -4.061725	           48.761332	            6.886493	           -0.155230	            0.005705	           -0.636516	            0.220475	           -2.646820	           -0.373807
            3.759000	           14.171483	           46.306046	            5.987195	           -0.173897	            0.006118	           -0.378379	            0.164651	            0.538007	            0.069562	           -3.913159	           46.551725	            6.972405	           -0.150872	            0.005709	           -0.633272	            0.217519	           -2.587648	           -0.387572
            3.759500	           13.804274	           43.243228	            5.562262	           -0.170288	            0.006139	           -0.383088	            0.149903	            0.469586	            0.060402	           -4.233777	           44.524742	            7.012245	           -0.148514	            0.005719	           -0.633695	            0.243447	           -2.560226	           -0.403212
            3.760000	           13.162783	           42.161313	            5.605073	           -0.171499	            0.006122	           -0.379224	            0.092428	            0.296052	            0.039358	           -4.418394	           43.786467	            7.291265	           -0.148937	            0.005730	           -0.637145	            0.264447	           -2.620681	           -0.436392
            3.760500	           12.842197	           39.817994	            5.549965	           -0.172151	            0.006128	           -0.380549	            0.106949	            0.331602	            0.046220	           -4.784492	           41.390684	            7.423667	           -0.145233	            0.005736	           -0.635190	            0.287792	           -2.489695	           -0.446542
            3.761000	           12.887081	           39.459241	            5.135602	           -0.173820	            0.006111	           -0.376634	            0.155168	            0.475111	            0.061835	           -5.245680	           39.363361	            7.416638	           -0.140041	            0.005744	           -0.632207	            0.322384	           -2.419155	           -0.455805
